<svg width="24" height="6" viewBox="0 0 24 6" fill="none" xmlns="http://www.w3.org/2000/svg">
<path d="M4.90078 2.99922C4.90078 3.71719 4.31875 4.29922 3.60078 4.29922C2.88281 4.29922 2.30078 3.71719 2.30078 2.99922C2.30078 2.28125 2.88281 1.69922 3.60078 1.69922C4.31875 1.69922 4.90078 2.28125 4.90078 2.99922ZM13.3008 2.99922C13.3008 3.71719 12.7188 4.29922 12.0008 4.29922C11.2828 4.29922 10.7008 3.71719 10.7008 2.99922C10.7008 2.28125 11.2828 1.69922 12.0008 1.69922C12.7188 1.69922 13.3008 2.28125 13.3008 2.99922ZM21.7008 2.99922C21.7008 3.71719 21.1188 4.29922 20.4008 4.29922C19.6828 4.29922 19.1008 3.71719 19.1008 2.99922C19.1008 2.28125 19.6828 1.69922 20.4008 1.69922C21.1188 1.69922 21.7008 2.28125 21.7008 2.99922Z" stroke="#A5B9D3" stroke-width="3"/>
</svg>
