<svg width="31" height="288" viewBox="0 0 31 288" fill="none" xmlns="http://www.w3.org/2000/svg">
<g clip-path="url(#clip0_7_6218)">
<g clip-path="url(#clip1_7_6218)">
<circle cx="15.5" cy="2" r="1" fill="#778FB1"/>
<circle cx="15.5" cy="8" r="1" fill="#778FB1"/>
<circle cx="15.5" cy="14" r="1" fill="#778FB1"/>
<circle cx="15.5" cy="20" r="1" fill="#778FB1"/>
<circle cx="15.5" cy="26" r="1" fill="#778FB1"/>
<circle cx="15.5" cy="32" r="1" fill="#778FB1"/>
<circle cx="15.5" cy="38" r="1" fill="#778FB1"/>
<circle cx="15.5" cy="44" r="1" fill="#778FB1"/>
<circle cx="15.5" cy="50" r="1" fill="#778FB1"/>
<circle cx="15.5" cy="56" r="1" fill="#778FB1"/>
<circle cx="15.5" cy="62" r="1" fill="#778FB1"/>
<circle cx="15.5" cy="68" r="1" fill="#778FB1"/>
<circle cx="15.5" cy="74" r="1" fill="#778FB1"/>
<circle cx="15.5" cy="80" r="1" fill="#778FB1"/>
<circle cx="15.5" cy="86" r="1" fill="#778FB1"/>
<circle cx="15.5" cy="92" r="1" fill="#778FB1"/>
<circle cx="15.5" cy="98" r="1" fill="#778FB1"/>
<circle cx="15.5" cy="104" r="1" fill="#778FB1"/>
<circle cx="15.5" cy="110" r="1" fill="#778FB1"/>
<circle cx="15.5" cy="116" r="1" fill="#778FB1"/>
<circle cx="15.5" cy="122" r="1" fill="#778FB1"/>
<circle cx="15.5" cy="128" r="1" fill="#778FB1"/>
<circle cx="15.5" cy="134" r="1" fill="#778FB1"/>
</g>
<circle cx="15.5" cy="145" r="6.5" fill="white" stroke="#0066FF" stroke-width="3"/>
<g clip-path="url(#clip2_7_6218)">
<circle cx="15.5" cy="156" r="1" fill="#778FB1"/>
<circle cx="15.5" cy="162" r="1" fill="#778FB1"/>
<circle cx="15.5" cy="168" r="1" fill="#778FB1"/>
<circle cx="15.5" cy="174" r="1" fill="#778FB1"/>
<circle cx="15.5" cy="180" r="1" fill="#778FB1"/>
<circle cx="15.5" cy="186" r="1" fill="#778FB1"/>
<circle cx="15.5" cy="192" r="1" fill="#778FB1"/>
<circle cx="15.5" cy="198" r="1" fill="#778FB1"/>
<circle cx="15.5" cy="204" r="1" fill="#778FB1"/>
<circle cx="15.5" cy="210" r="1" fill="#778FB1"/>
<circle cx="15.5" cy="216" r="1" fill="#778FB1"/>
<circle cx="15.5" cy="222" r="1" fill="#778FB1"/>
<circle cx="15.5" cy="228" r="1" fill="#778FB1"/>
<circle cx="15.5" cy="234" r="1" fill="#778FB1"/>
<circle cx="15.5" cy="240" r="1" fill="#778FB1"/>
<circle cx="15.5" cy="246" r="1" fill="#778FB1"/>
<circle cx="15.5" cy="252" r="1" fill="#778FB1"/>
<circle cx="15.5" cy="258" r="1" fill="#778FB1"/>
<circle cx="15.5" cy="264" r="1" fill="#778FB1"/>
<circle cx="15.5" cy="270" r="1" fill="#778FB1"/>
<circle cx="15.5" cy="276" r="1" fill="#778FB1"/>
<circle cx="15.5" cy="282" r="1" fill="#778FB1"/>
<circle cx="15.5" cy="288" r="1" fill="#778FB1"/>
</g>
</g>
<defs>
<clipPath id="clip0_7_6218">
<rect width="31" height="288" fill="white"/>
</clipPath>
<clipPath id="clip1_7_6218">
<rect width="5" height="144" fill="white" transform="translate(13 -7)"/>
</clipPath>
<clipPath id="clip2_7_6218">
<rect width="5" height="142" fill="white" transform="translate(13 153)"/>
</clipPath>
</defs>
</svg>
