<svg width="31" height="157" viewBox="0 0 31 157" fill="none" xmlns="http://www.w3.org/2000/svg">
<g clip-path="url(#clip0_7_6379)">
<path d="M22 8L15.5 2L9 8" stroke="#778FB1" stroke-width="1.5" stroke-linecap="round" stroke-linejoin="round"/>
<g clip-path="url(#clip1_7_6379)">
<circle cx="15.5" cy="13" r="1" fill="#778FB1"/>
<circle cx="15.5" cy="19" r="1" fill="#778FB1"/>
<circle cx="15.5" cy="25" r="1" fill="#778FB1"/>
<circle cx="15.5" cy="31" r="1" fill="#778FB1"/>
<circle cx="15.5" cy="37" r="1" fill="#778FB1"/>
<circle cx="15.5" cy="43" r="1" fill="#778FB1"/>
<circle cx="15.5" cy="49" r="1" fill="#778FB1"/>
<circle cx="15.5" cy="55" r="1" fill="#778FB1"/>
<circle cx="15.5" cy="61" r="1" fill="#778FB1"/>
<circle cx="15.5" cy="67" r="1" fill="#778FB1"/>
</g>
<g filter="url(#filter0_d_7_6379)">
<ellipse cx="15.5" cy="83.5" rx="14" ry="13.5" fill="white"/>
<path d="M25 83.5C25 88.3177 20.9024 92.5 15.5 92.5C10.0976 92.5 6 88.3177 6 83.5C6 78.6823 10.0976 74.5 15.5 74.5C20.9024 74.5 25 78.6823 25 83.5Z" stroke="#0066FF" stroke-width="9"/>
</g>
<g clip-path="url(#clip2_7_6379)">
<circle cx="15.5" cy="100" r="1" fill="#778FB1"/>
<circle cx="15.5" cy="106" r="1" fill="#778FB1"/>
<circle cx="15.5" cy="112" r="1" fill="#778FB1"/>
<circle cx="15.5" cy="118" r="1" fill="#778FB1"/>
<circle cx="15.5" cy="124" r="1" fill="#778FB1"/>
<circle cx="15.5" cy="130" r="1" fill="#778FB1"/>
<circle cx="15.5" cy="136" r="1" fill="#778FB1"/>
<circle cx="15.5" cy="142" r="1" fill="#778FB1"/>
<circle cx="15.5" cy="148" r="1" fill="#778FB1"/>
<circle cx="15.5" cy="154" r="1" fill="#778FB1"/>
</g>
</g>
<defs>
<filter id="filter0_d_7_6379" x="0.5" y="70" width="30" height="29" filterUnits="userSpaceOnUse" color-interpolation-filters="sRGB">
<feFlood flood-opacity="0" result="BackgroundImageFix"/>
<feColorMatrix in="SourceAlpha" type="matrix" values="0 0 0 0 0 0 0 0 0 0 0 0 0 0 0 0 0 0 127 0" result="hardAlpha"/>
<feOffset dy="1"/>
<feGaussianBlur stdDeviation="0.5"/>
<feComposite in2="hardAlpha" operator="out"/>
<feColorMatrix type="matrix" values="0 0 0 0 0.647059 0 0 0 0 0.72549 0 0 0 0 0.827451 0 0 0 1 0"/>
<feBlend mode="normal" in2="BackgroundImageFix" result="effect1_dropShadow_7_6379"/>
<feBlend mode="normal" in="SourceGraphic" in2="effect1_dropShadow_7_6379" result="shape"/>
</filter>
<clipPath id="clip0_7_6379">
<rect width="31" height="157" fill="white"/>
</clipPath>
<clipPath id="clip1_7_6379">
<rect width="5" height="60" fill="white" transform="translate(13 10)"/>
</clipPath>
<clipPath id="clip2_7_6379">
<rect width="5" height="60" fill="white" transform="translate(13 97)"/>
</clipPath>
</defs>
</svg>
