<svg width="1424" height="1" viewBox="0 0 1424 1" fill="none" xmlns="http://www.w3.org/2000/svg">
<circle cx="1.78003" cy="0.5" r="0.5" fill="#525C69"/>
<circle cx="5.34009" cy="0.5" r="0.5" fill="#525C69"/>
<circle cx="8.90015" cy="0.5" r="0.5" fill="#525C69"/>
<circle cx="12.46" cy="0.5" r="0.5" fill="#525C69"/>
<circle cx="16.02" cy="0.5" r="0.5" fill="#525C69"/>
<circle cx="19.5801" cy="0.5" r="0.5" fill="#525C69"/>
<circle cx="23.1401" cy="0.5" r="0.5" fill="#525C69"/>
<circle cx="26.7" cy="0.5" r="0.5" fill="#525C69"/>
<circle cx="30.26" cy="0.5" r="0.5" fill="#525C69"/>
<circle cx="33.8201" cy="0.5" r="0.5" fill="#525C69"/>
<circle cx="37.3801" cy="0.5" r="0.5" fill="#525C69"/>
<circle cx="40.9399" cy="0.5" r="0.5" fill="#525C69"/>
<circle cx="44.5" cy="0.5" r="0.5" fill="#525C69"/>
<circle cx="48.0601" cy="0.5" r="0.5" fill="#525C69"/>
<circle cx="51.6201" cy="0.5" r="0.5" fill="#525C69"/>
<circle cx="55.1799" cy="0.5" r="0.5" fill="#525C69"/>
<circle cx="58.74" cy="0.5" r="0.5" fill="#525C69"/>
<circle cx="62.3" cy="0.5" r="0.5" fill="#525C69"/>
<circle cx="65.8601" cy="0.5" r="0.5" fill="#525C69"/>
<circle cx="69.4199" cy="0.5" r="0.5" fill="#525C69"/>
<circle cx="72.98" cy="0.5" r="0.5" fill="#525C69"/>
<circle cx="76.54" cy="0.5" r="0.5" fill="#525C69"/>
<circle cx="80.1001" cy="0.5" r="0.5" fill="#525C69"/>
<circle cx="83.6599" cy="0.5" r="0.5" fill="#525C69"/>
<circle cx="87.22" cy="0.5" r="0.5" fill="#525C69"/>
<circle cx="90.78" cy="0.5" r="0.5" fill="#525C69"/>
<circle cx="94.3401" cy="0.5" r="0.5" fill="#525C69"/>
<circle cx="97.8999" cy="0.5" r="0.5" fill="#525C69"/>
<circle cx="101.46" cy="0.5" r="0.5" fill="#525C69"/>
<circle cx="105.02" cy="0.5" r="0.5" fill="#525C69"/>
<circle cx="108.58" cy="0.5" r="0.5" fill="#525C69"/>
<circle cx="112.14" cy="0.5" r="0.5" fill="#525C69"/>
<circle cx="115.7" cy="0.5" r="0.5" fill="#525C69"/>
<circle cx="119.26" cy="0.5" r="0.5" fill="#525C69"/>
<circle cx="122.82" cy="0.5" r="0.5" fill="#525C69"/>
<circle cx="126.38" cy="0.5" r="0.5" fill="#525C69"/>
<circle cx="129.94" cy="0.5" r="0.5" fill="#525C69"/>
<circle cx="133.5" cy="0.5" r="0.5" fill="#525C69"/>
<circle cx="137.06" cy="0.5" r="0.5" fill="#525C69"/>
<circle cx="140.62" cy="0.5" r="0.5" fill="#525C69"/>
<circle cx="144.18" cy="0.5" r="0.5" fill="#525C69"/>
<circle cx="147.74" cy="0.5" r="0.5" fill="#525C69"/>
<circle cx="151.3" cy="0.5" r="0.5" fill="#525C69"/>
<circle cx="154.86" cy="0.5" r="0.5" fill="#525C69"/>
<circle cx="158.42" cy="0.5" r="0.5" fill="#525C69"/>
<circle cx="161.98" cy="0.5" r="0.5" fill="#525C69"/>
<circle cx="165.54" cy="0.5" r="0.5" fill="#525C69"/>
<circle cx="169.1" cy="0.5" r="0.5" fill="#525C69"/>
<circle cx="172.66" cy="0.5" r="0.5" fill="#525C69"/>
<circle cx="176.22" cy="0.5" r="0.5" fill="#525C69"/>
<circle cx="179.78" cy="0.5" r="0.5" fill="#525C69"/>
<circle cx="183.34" cy="0.5" r="0.5" fill="#525C69"/>
<circle cx="186.9" cy="0.5" r="0.5" fill="#525C69"/>
<circle cx="190.46" cy="0.5" r="0.5" fill="#525C69"/>
<circle cx="194.02" cy="0.5" r="0.5" fill="#525C69"/>
<circle cx="197.58" cy="0.5" r="0.5" fill="#525C69"/>
<circle cx="201.14" cy="0.5" r="0.5" fill="#525C69"/>
<circle cx="204.7" cy="0.5" r="0.5" fill="#525C69"/>
<circle cx="208.26" cy="0.5" r="0.5" fill="#525C69"/>
<circle cx="211.82" cy="0.5" r="0.5" fill="#525C69"/>
<circle cx="215.38" cy="0.5" r="0.5" fill="#525C69"/>
<circle cx="218.94" cy="0.5" r="0.5" fill="#525C69"/>
<circle cx="222.5" cy="0.5" r="0.5" fill="#525C69"/>
<circle cx="226.06" cy="0.5" r="0.5" fill="#525C69"/>
<circle cx="229.62" cy="0.5" r="0.5" fill="#525C69"/>
<circle cx="233.18" cy="0.5" r="0.5" fill="#525C69"/>
<circle cx="236.74" cy="0.5" r="0.5" fill="#525C69"/>
<circle cx="240.3" cy="0.5" r="0.5" fill="#525C69"/>
<circle cx="243.86" cy="0.5" r="0.5" fill="#525C69"/>
<circle cx="247.42" cy="0.5" r="0.5" fill="#525C69"/>
<circle cx="250.98" cy="0.5" r="0.5" fill="#525C69"/>
<circle cx="254.54" cy="0.5" r="0.5" fill="#525C69"/>
<circle cx="258.1" cy="0.5" r="0.5" fill="#525C69"/>
<circle cx="261.66" cy="0.5" r="0.5" fill="#525C69"/>
<circle cx="265.22" cy="0.5" r="0.5" fill="#525C69"/>
<circle cx="268.78" cy="0.5" r="0.5" fill="#525C69"/>
<circle cx="272.34" cy="0.5" r="0.5" fill="#525C69"/>
<circle cx="275.9" cy="0.5" r="0.5" fill="#525C69"/>
<circle cx="279.46" cy="0.5" r="0.5" fill="#525C69"/>
<circle cx="283.02" cy="0.5" r="0.5" fill="#525C69"/>
<circle cx="286.58" cy="0.5" r="0.5" fill="#525C69"/>
<circle cx="290.14" cy="0.5" r="0.5" fill="#525C69"/>
<circle cx="293.7" cy="0.5" r="0.5" fill="#525C69"/>
<circle cx="297.26" cy="0.5" r="0.5" fill="#525C69"/>
<circle cx="300.82" cy="0.5" r="0.5" fill="#525C69"/>
<circle cx="304.38" cy="0.5" r="0.5" fill="#525C69"/>
<circle cx="307.94" cy="0.5" r="0.5" fill="#525C69"/>
<circle cx="311.5" cy="0.5" r="0.5" fill="#525C69"/>
<circle cx="315.06" cy="0.5" r="0.5" fill="#525C69"/>
<circle cx="318.62" cy="0.5" r="0.5" fill="#525C69"/>
<circle cx="322.18" cy="0.5" r="0.5" fill="#525C69"/>
<circle cx="325.74" cy="0.5" r="0.5" fill="#525C69"/>
<circle cx="329.3" cy="0.5" r="0.5" fill="#525C69"/>
<circle cx="332.86" cy="0.5" r="0.5" fill="#525C69"/>
<circle cx="336.42" cy="0.5" r="0.5" fill="#525C69"/>
<circle cx="339.98" cy="0.5" r="0.5" fill="#525C69"/>
<circle cx="343.54" cy="0.5" r="0.5" fill="#525C69"/>
<circle cx="347.1" cy="0.5" r="0.5" fill="#525C69"/>
<circle cx="350.66" cy="0.5" r="0.5" fill="#525C69"/>
<circle cx="354.22" cy="0.5" r="0.5" fill="#525C69"/>
<circle cx="357.78" cy="0.5" r="0.5" fill="#525C69"/>
<circle cx="361.34" cy="0.5" r="0.5" fill="#525C69"/>
<circle cx="364.9" cy="0.5" r="0.5" fill="#525C69"/>
<circle cx="368.46" cy="0.5" r="0.5" fill="#525C69"/>
<circle cx="372.02" cy="0.5" r="0.5" fill="#525C69"/>
<circle cx="375.58" cy="0.5" r="0.5" fill="#525C69"/>
<circle cx="379.14" cy="0.5" r="0.5" fill="#525C69"/>
<circle cx="382.7" cy="0.5" r="0.5" fill="#525C69"/>
<circle cx="386.26" cy="0.5" r="0.5" fill="#525C69"/>
<circle cx="389.82" cy="0.5" r="0.5" fill="#525C69"/>
<circle cx="393.38" cy="0.5" r="0.5" fill="#525C69"/>
<circle cx="396.94" cy="0.5" r="0.5" fill="#525C69"/>
<circle cx="400.5" cy="0.5" r="0.5" fill="#525C69"/>
<circle cx="404.06" cy="0.5" r="0.5" fill="#525C69"/>
<circle cx="407.62" cy="0.5" r="0.5" fill="#525C69"/>
<circle cx="411.18" cy="0.5" r="0.5" fill="#525C69"/>
<circle cx="414.74" cy="0.5" r="0.5" fill="#525C69"/>
<circle cx="418.3" cy="0.5" r="0.5" fill="#525C69"/>
<circle cx="421.86" cy="0.5" r="0.5" fill="#525C69"/>
<circle cx="425.42" cy="0.5" r="0.5" fill="#525C69"/>
<circle cx="428.98" cy="0.5" r="0.5" fill="#525C69"/>
<circle cx="432.54" cy="0.5" r="0.5" fill="#525C69"/>
<circle cx="436.1" cy="0.5" r="0.5" fill="#525C69"/>
<circle cx="439.66" cy="0.5" r="0.5" fill="#525C69"/>
<circle cx="443.22" cy="0.5" r="0.5" fill="#525C69"/>
<circle cx="446.78" cy="0.5" r="0.5" fill="#525C69"/>
<circle cx="450.34" cy="0.5" r="0.5" fill="#525C69"/>
<circle cx="453.9" cy="0.5" r="0.5" fill="#525C69"/>
<circle cx="457.46" cy="0.5" r="0.5" fill="#525C69"/>
<circle cx="461.02" cy="0.5" r="0.5" fill="#525C69"/>
<circle cx="464.58" cy="0.5" r="0.5" fill="#525C69"/>
<circle cx="468.14" cy="0.5" r="0.5" fill="#525C69"/>
<circle cx="471.7" cy="0.5" r="0.5" fill="#525C69"/>
<circle cx="475.26" cy="0.5" r="0.5" fill="#525C69"/>
<circle cx="478.82" cy="0.5" r="0.5" fill="#525C69"/>
<circle cx="482.38" cy="0.5" r="0.5" fill="#525C69"/>
<circle cx="485.94" cy="0.5" r="0.5" fill="#525C69"/>
<circle cx="489.5" cy="0.5" r="0.5" fill="#525C69"/>
<circle cx="493.06" cy="0.5" r="0.5" fill="#525C69"/>
<circle cx="496.62" cy="0.5" r="0.5" fill="#525C69"/>
<circle cx="500.18" cy="0.5" r="0.5" fill="#525C69"/>
<circle cx="503.74" cy="0.5" r="0.5" fill="#525C69"/>
<circle cx="507.3" cy="0.5" r="0.5" fill="#525C69"/>
<circle cx="510.86" cy="0.5" r="0.5" fill="#525C69"/>
<circle cx="514.42" cy="0.5" r="0.5" fill="#525C69"/>
<circle cx="517.98" cy="0.5" r="0.5" fill="#525C69"/>
<circle cx="521.54" cy="0.5" r="0.5" fill="#525C69"/>
<circle cx="525.1" cy="0.5" r="0.5" fill="#525C69"/>
<circle cx="528.66" cy="0.5" r="0.5" fill="#525C69"/>
<circle cx="532.22" cy="0.5" r="0.5" fill="#525C69"/>
<circle cx="535.78" cy="0.5" r="0.5" fill="#525C69"/>
<circle cx="539.34" cy="0.5" r="0.5" fill="#525C69"/>
<circle cx="542.9" cy="0.5" r="0.5" fill="#525C69"/>
<circle cx="546.46" cy="0.5" r="0.5" fill="#525C69"/>
<circle cx="550.02" cy="0.5" r="0.5" fill="#525C69"/>
<circle cx="553.58" cy="0.5" r="0.5" fill="#525C69"/>
<circle cx="557.14" cy="0.5" r="0.5" fill="#525C69"/>
<circle cx="560.7" cy="0.5" r="0.5" fill="#525C69"/>
<circle cx="564.26" cy="0.5" r="0.5" fill="#525C69"/>
<circle cx="567.82" cy="0.5" r="0.5" fill="#525C69"/>
<circle cx="571.38" cy="0.5" r="0.5" fill="#525C69"/>
<circle cx="574.94" cy="0.5" r="0.5" fill="#525C69"/>
<circle cx="578.5" cy="0.5" r="0.5" fill="#525C69"/>
<circle cx="582.06" cy="0.5" r="0.5" fill="#525C69"/>
<circle cx="585.62" cy="0.5" r="0.5" fill="#525C69"/>
<circle cx="589.18" cy="0.5" r="0.5" fill="#525C69"/>
<circle cx="592.74" cy="0.5" r="0.5" fill="#525C69"/>
<circle cx="596.3" cy="0.5" r="0.5" fill="#525C69"/>
<circle cx="599.86" cy="0.5" r="0.5" fill="#525C69"/>
<circle cx="603.42" cy="0.5" r="0.5" fill="#525C69"/>
<circle cx="606.98" cy="0.5" r="0.5" fill="#525C69"/>
<circle cx="610.54" cy="0.5" r="0.5" fill="#525C69"/>
<circle cx="614.1" cy="0.5" r="0.5" fill="#525C69"/>
<circle cx="617.66" cy="0.5" r="0.5" fill="#525C69"/>
<circle cx="621.219" cy="0.5" r="0.5" fill="#525C69"/>
<circle cx="624.78" cy="0.5" r="0.5" fill="#525C69"/>
<circle cx="628.34" cy="0.5" r="0.5" fill="#525C69"/>
<circle cx="631.9" cy="0.5" r="0.5" fill="#525C69"/>
<circle cx="635.46" cy="0.5" r="0.5" fill="#525C69"/>
<circle cx="639.02" cy="0.5" r="0.5" fill="#525C69"/>
<circle cx="642.58" cy="0.5" r="0.5" fill="#525C69"/>
<circle cx="646.14" cy="0.5" r="0.5" fill="#525C69"/>
<circle cx="649.699" cy="0.5" r="0.5" fill="#525C69"/>
<circle cx="653.26" cy="0.5" r="0.5" fill="#525C69"/>
<circle cx="656.82" cy="0.5" r="0.5" fill="#525C69"/>
<circle cx="660.38" cy="0.5" r="0.5" fill="#525C69"/>
<circle cx="663.94" cy="0.5" r="0.5" fill="#525C69"/>
<circle cx="667.5" cy="0.5" r="0.5" fill="#525C69"/>
<circle cx="671.06" cy="0.5" r="0.5" fill="#525C69"/>
<circle cx="674.62" cy="0.5" r="0.5" fill="#525C69"/>
<circle cx="678.179" cy="0.5" r="0.5" fill="#525C69"/>
<circle cx="681.74" cy="0.5" r="0.5" fill="#525C69"/>
<circle cx="685.3" cy="0.5" r="0.5" fill="#525C69"/>
<circle cx="688.86" cy="0.5" r="0.5" fill="#525C69"/>
<circle cx="692.42" cy="0.5" r="0.5" fill="#525C69"/>
<circle cx="695.979" cy="0.5" r="0.5" fill="#525C69"/>
<circle cx="699.54" cy="0.5" r="0.5" fill="#525C69"/>
<circle cx="703.1" cy="0.5" r="0.5" fill="#525C69"/>
<circle cx="706.659" cy="0.5" r="0.5" fill="#525C69"/>
<circle cx="710.219" cy="0.5" r="0.5" fill="#525C69"/>
<circle cx="713.78" cy="0.5" r="0.5" fill="#525C69"/>
<circle cx="717.34" cy="0.5" r="0.5" fill="#525C69"/>
<circle cx="720.9" cy="0.5" r="0.5" fill="#525C69"/>
<circle cx="724.459" cy="0.5" r="0.5" fill="#525C69"/>
<circle cx="728.02" cy="0.5" r="0.5" fill="#525C69"/>
<circle cx="731.58" cy="0.5" r="0.5" fill="#525C69"/>
<circle cx="735.139" cy="0.5" r="0.5" fill="#525C69"/>
<circle cx="738.699" cy="0.5" r="0.5" fill="#525C69"/>
<circle cx="742.26" cy="0.5" r="0.5" fill="#525C69"/>
<circle cx="745.82" cy="0.5" r="0.5" fill="#525C69"/>
<circle cx="749.38" cy="0.5" r="0.5" fill="#525C69"/>
<circle cx="752.939" cy="0.5" r="0.5" fill="#525C69"/>
<circle cx="756.5" cy="0.5" r="0.5" fill="#525C69"/>
<circle cx="760.06" cy="0.5" r="0.5" fill="#525C69"/>
<circle cx="763.619" cy="0.5" r="0.5" fill="#525C69"/>
<circle cx="767.179" cy="0.5" r="0.5" fill="#525C69"/>
<circle cx="770.74" cy="0.5" r="0.5" fill="#525C69"/>
<circle cx="774.3" cy="0.5" r="0.5" fill="#525C69"/>
<circle cx="777.86" cy="0.5" r="0.5" fill="#525C69"/>
<circle cx="781.419" cy="0.5" r="0.5" fill="#525C69"/>
<circle cx="784.979" cy="0.5" r="0.5" fill="#525C69"/>
<circle cx="788.54" cy="0.5" r="0.5" fill="#525C69"/>
<circle cx="792.099" cy="0.5" r="0.5" fill="#525C69"/>
<circle cx="795.659" cy="0.5" r="0.5" fill="#525C69"/>
<circle cx="799.219" cy="0.5" r="0.5" fill="#525C69"/>
<circle cx="802.78" cy="0.5" r="0.5" fill="#525C69"/>
<circle cx="806.34" cy="0.5" r="0.5" fill="#525C69"/>
<circle cx="809.899" cy="0.5" r="0.5" fill="#525C69"/>
<circle cx="813.459" cy="0.5" r="0.5" fill="#525C69"/>
<circle cx="817.02" cy="0.5" r="0.5" fill="#525C69"/>
<circle cx="820.579" cy="0.5" r="0.5" fill="#525C69"/>
<circle cx="824.139" cy="0.5" r="0.5" fill="#525C69"/>
<circle cx="827.699" cy="0.5" r="0.5" fill="#525C69"/>
<circle cx="831.26" cy="0.5" r="0.5" fill="#525C69"/>
<circle cx="834.82" cy="0.5" r="0.5" fill="#525C69"/>
<circle cx="838.379" cy="0.5" r="0.5" fill="#525C69"/>
<circle cx="841.939" cy="0.5" r="0.5" fill="#525C69"/>
<circle cx="845.5" cy="0.5" r="0.5" fill="#525C69"/>
<circle cx="849.059" cy="0.5" r="0.5" fill="#525C69"/>
<circle cx="852.619" cy="0.5" r="0.5" fill="#525C69"/>
<circle cx="856.179" cy="0.5" r="0.5" fill="#525C69"/>
<circle cx="859.739" cy="0.5" r="0.5" fill="#525C69"/>
<circle cx="863.299" cy="0.5" r="0.5" fill="#525C69"/>
<circle cx="866.859" cy="0.5" r="0.5" fill="#525C69"/>
<circle cx="870.419" cy="0.5" r="0.5" fill="#525C69"/>
<circle cx="873.979" cy="0.5" r="0.5" fill="#525C69"/>
<circle cx="877.539" cy="0.5" r="0.5" fill="#525C69"/>
<circle cx="881.099" cy="0.5" r="0.5" fill="#525C69"/>
<circle cx="884.659" cy="0.5" r="0.5" fill="#525C69"/>
<circle cx="888.219" cy="0.5" r="0.5" fill="#525C69"/>
<circle cx="891.779" cy="0.5" r="0.5" fill="#525C69"/>
<circle cx="895.339" cy="0.5" r="0.5" fill="#525C69"/>
<circle cx="898.899" cy="0.5" r="0.5" fill="#525C69"/>
<circle cx="902.459" cy="0.5" r="0.5" fill="#525C69"/>
<circle cx="906.019" cy="0.5" r="0.5" fill="#525C69"/>
<circle cx="909.579" cy="0.5" r="0.5" fill="#525C69"/>
<circle cx="913.139" cy="0.5" r="0.5" fill="#525C69"/>
<circle cx="916.699" cy="0.5" r="0.5" fill="#525C69"/>
<circle cx="920.259" cy="0.5" r="0.5" fill="#525C69"/>
<circle cx="923.819" cy="0.5" r="0.5" fill="#525C69"/>
<circle cx="927.379" cy="0.5" r="0.5" fill="#525C69"/>
<circle cx="930.939" cy="0.5" r="0.5" fill="#525C69"/>
<circle cx="934.499" cy="0.5" r="0.5" fill="#525C69"/>
<circle cx="938.059" cy="0.5" r="0.5" fill="#525C69"/>
<circle cx="941.619" cy="0.5" r="0.5" fill="#525C69"/>
<circle cx="945.179" cy="0.5" r="0.5" fill="#525C69"/>
<circle cx="948.739" cy="0.5" r="0.5" fill="#525C69"/>
<circle cx="952.299" cy="0.5" r="0.5" fill="#525C69"/>
<circle cx="955.859" cy="0.5" r="0.5" fill="#525C69"/>
<circle cx="959.419" cy="0.5" r="0.5" fill="#525C69"/>
<circle cx="962.979" cy="0.5" r="0.5" fill="#525C69"/>
<circle cx="966.539" cy="0.5" r="0.5" fill="#525C69"/>
<circle cx="970.099" cy="0.5" r="0.5" fill="#525C69"/>
<circle cx="973.659" cy="0.5" r="0.5" fill="#525C69"/>
<circle cx="977.219" cy="0.5" r="0.5" fill="#525C69"/>
<circle cx="980.779" cy="0.5" r="0.5" fill="#525C69"/>
<circle cx="984.339" cy="0.5" r="0.5" fill="#525C69"/>
<circle cx="987.899" cy="0.5" r="0.5" fill="#525C69"/>
<circle cx="991.459" cy="0.5" r="0.5" fill="#525C69"/>
<circle cx="995.019" cy="0.5" r="0.5" fill="#525C69"/>
<circle cx="998.579" cy="0.5" r="0.5" fill="#525C69"/>
<circle cx="1002.14" cy="0.5" r="0.5" fill="#525C69"/>
<circle cx="1005.7" cy="0.5" r="0.5" fill="#525C69"/>
<circle cx="1009.26" cy="0.5" r="0.5" fill="#525C69"/>
<circle cx="1012.82" cy="0.5" r="0.5" fill="#525C69"/>
<circle cx="1016.38" cy="0.5" r="0.5" fill="#525C69"/>
<circle cx="1019.94" cy="0.5" r="0.5" fill="#525C69"/>
<circle cx="1023.5" cy="0.5" r="0.5" fill="#525C69"/>
<circle cx="1027.06" cy="0.5" r="0.5" fill="#525C69"/>
<circle cx="1030.62" cy="0.5" r="0.5" fill="#525C69"/>
<circle cx="1034.18" cy="0.5" r="0.5" fill="#525C69"/>
<circle cx="1037.74" cy="0.5" r="0.5" fill="#525C69"/>
<circle cx="1041.3" cy="0.5" r="0.5" fill="#525C69"/>
<circle cx="1044.86" cy="0.5" r="0.5" fill="#525C69"/>
<circle cx="1048.42" cy="0.5" r="0.5" fill="#525C69"/>
<circle cx="1051.98" cy="0.5" r="0.5" fill="#525C69"/>
<circle cx="1055.54" cy="0.5" r="0.5" fill="#525C69"/>
<circle cx="1059.1" cy="0.5" r="0.5" fill="#525C69"/>
<circle cx="1062.66" cy="0.5" r="0.5" fill="#525C69"/>
<circle cx="1066.22" cy="0.5" r="0.5" fill="#525C69"/>
<circle cx="1069.78" cy="0.5" r="0.5" fill="#525C69"/>
<circle cx="1073.34" cy="0.5" r="0.5" fill="#525C69"/>
<circle cx="1076.9" cy="0.5" r="0.5" fill="#525C69"/>
<circle cx="1080.46" cy="0.5" r="0.5" fill="#525C69"/>
<circle cx="1084.02" cy="0.5" r="0.5" fill="#525C69"/>
<circle cx="1087.58" cy="0.5" r="0.5" fill="#525C69"/>
<circle cx="1091.14" cy="0.5" r="0.5" fill="#525C69"/>
<circle cx="1094.7" cy="0.5" r="0.5" fill="#525C69"/>
<circle cx="1098.26" cy="0.5" r="0.5" fill="#525C69"/>
<circle cx="1101.82" cy="0.5" r="0.5" fill="#525C69"/>
<circle cx="1105.38" cy="0.5" r="0.5" fill="#525C69"/>
<circle cx="1108.94" cy="0.5" r="0.5" fill="#525C69"/>
<circle cx="1112.5" cy="0.5" r="0.5" fill="#525C69"/>
<circle cx="1116.06" cy="0.5" r="0.5" fill="#525C69"/>
<circle cx="1119.62" cy="0.5" r="0.5" fill="#525C69"/>
<circle cx="1123.18" cy="0.5" r="0.5" fill="#525C69"/>
<circle cx="1126.74" cy="0.5" r="0.5" fill="#525C69"/>
<circle cx="1130.3" cy="0.5" r="0.5" fill="#525C69"/>
<circle cx="1133.86" cy="0.5" r="0.5" fill="#525C69"/>
<circle cx="1137.42" cy="0.5" r="0.5" fill="#525C69"/>
<circle cx="1140.98" cy="0.5" r="0.5" fill="#525C69"/>
<circle cx="1144.54" cy="0.5" r="0.5" fill="#525C69"/>
<circle cx="1148.1" cy="0.5" r="0.5" fill="#525C69"/>
<circle cx="1151.66" cy="0.5" r="0.5" fill="#525C69"/>
<circle cx="1155.22" cy="0.5" r="0.5" fill="#525C69"/>
<circle cx="1158.78" cy="0.5" r="0.5" fill="#525C69"/>
<circle cx="1162.34" cy="0.5" r="0.5" fill="#525C69"/>
<circle cx="1165.9" cy="0.5" r="0.5" fill="#525C69"/>
<circle cx="1169.46" cy="0.5" r="0.5" fill="#525C69"/>
<circle cx="1173.02" cy="0.5" r="0.5" fill="#525C69"/>
<circle cx="1176.58" cy="0.5" r="0.5" fill="#525C69"/>
<circle cx="1180.14" cy="0.5" r="0.5" fill="#525C69"/>
<circle cx="1183.7" cy="0.5" r="0.5" fill="#525C69"/>
<circle cx="1187.26" cy="0.5" r="0.5" fill="#525C69"/>
<circle cx="1190.82" cy="0.5" r="0.5" fill="#525C69"/>
<circle cx="1194.38" cy="0.5" r="0.5" fill="#525C69"/>
<circle cx="1197.94" cy="0.5" r="0.5" fill="#525C69"/>
<circle cx="1201.5" cy="0.5" r="0.5" fill="#525C69"/>
<circle cx="1205.06" cy="0.5" r="0.5" fill="#525C69"/>
<circle cx="1208.62" cy="0.5" r="0.5" fill="#525C69"/>
<circle cx="1212.18" cy="0.5" r="0.5" fill="#525C69"/>
<circle cx="1215.74" cy="0.5" r="0.5" fill="#525C69"/>
<circle cx="1219.3" cy="0.5" r="0.5" fill="#525C69"/>
<circle cx="1222.86" cy="0.5" r="0.5" fill="#525C69"/>
<circle cx="1226.42" cy="0.5" r="0.5" fill="#525C69"/>
<circle cx="1229.98" cy="0.5" r="0.5" fill="#525C69"/>
<circle cx="1233.54" cy="0.5" r="0.5" fill="#525C69"/>
<circle cx="1237.1" cy="0.5" r="0.5" fill="#525C69"/>
<circle cx="1240.66" cy="0.5" r="0.5" fill="#525C69"/>
<circle cx="1244.22" cy="0.5" r="0.5" fill="#525C69"/>
<circle cx="1247.78" cy="0.5" r="0.5" fill="#525C69"/>
<circle cx="1251.34" cy="0.5" r="0.5" fill="#525C69"/>
<circle cx="1254.9" cy="0.5" r="0.5" fill="#525C69"/>
<circle cx="1258.46" cy="0.5" r="0.5" fill="#525C69"/>
<circle cx="1262.02" cy="0.5" r="0.5" fill="#525C69"/>
<circle cx="1265.58" cy="0.5" r="0.5" fill="#525C69"/>
<circle cx="1269.14" cy="0.5" r="0.5" fill="#525C69"/>
<circle cx="1272.7" cy="0.5" r="0.5" fill="#525C69"/>
<circle cx="1276.26" cy="0.5" r="0.5" fill="#525C69"/>
<circle cx="1279.82" cy="0.5" r="0.5" fill="#525C69"/>
<circle cx="1283.38" cy="0.5" r="0.5" fill="#525C69"/>
<circle cx="1286.94" cy="0.5" r="0.5" fill="#525C69"/>
<circle cx="1290.5" cy="0.5" r="0.5" fill="#525C69"/>
<circle cx="1294.06" cy="0.5" r="0.5" fill="#525C69"/>
<circle cx="1297.62" cy="0.5" r="0.5" fill="#525C69"/>
<circle cx="1301.18" cy="0.5" r="0.5" fill="#525C69"/>
<circle cx="1304.74" cy="0.5" r="0.5" fill="#525C69"/>
<circle cx="1308.3" cy="0.5" r="0.5" fill="#525C69"/>
<circle cx="1311.86" cy="0.5" r="0.5" fill="#525C69"/>
<circle cx="1315.42" cy="0.5" r="0.5" fill="#525C69"/>
<circle cx="1318.98" cy="0.5" r="0.5" fill="#525C69"/>
<circle cx="1322.54" cy="0.5" r="0.5" fill="#525C69"/>
<circle cx="1326.1" cy="0.5" r="0.5" fill="#525C69"/>
<circle cx="1329.66" cy="0.5" r="0.5" fill="#525C69"/>
<circle cx="1333.22" cy="0.5" r="0.5" fill="#525C69"/>
<circle cx="1336.78" cy="0.5" r="0.5" fill="#525C69"/>
<circle cx="1340.34" cy="0.5" r="0.5" fill="#525C69"/>
<circle cx="1343.9" cy="0.5" r="0.5" fill="#525C69"/>
<circle cx="1347.46" cy="0.5" r="0.5" fill="#525C69"/>
<circle cx="1351.02" cy="0.5" r="0.5" fill="#525C69"/>
<circle cx="1354.58" cy="0.5" r="0.5" fill="#525C69"/>
<circle cx="1358.14" cy="0.5" r="0.5" fill="#525C69"/>
<circle cx="1361.7" cy="0.5" r="0.5" fill="#525C69"/>
<circle cx="1365.26" cy="0.5" r="0.5" fill="#525C69"/>
<circle cx="1368.82" cy="0.5" r="0.5" fill="#525C69"/>
<circle cx="1372.38" cy="0.5" r="0.5" fill="#525C69"/>
<circle cx="1375.94" cy="0.5" r="0.5" fill="#525C69"/>
<circle cx="1379.5" cy="0.5" r="0.5" fill="#525C69"/>
<circle cx="1383.06" cy="0.5" r="0.5" fill="#525C69"/>
<circle cx="1386.62" cy="0.5" r="0.5" fill="#525C69"/>
<circle cx="1390.19" cy="0.5" r="0.5" fill="#525C69"/>
<circle cx="1393.75" cy="0.5" r="0.5" fill="#525C69"/>
<circle cx="1397.31" cy="0.5" r="0.5" fill="#525C69"/>
<circle cx="1400.87" cy="0.5" r="0.5" fill="#525C69"/>
<circle cx="1404.43" cy="0.5" r="0.5" fill="#525C69"/>
<circle cx="1407.99" cy="0.5" r="0.5" fill="#525C69"/>
<circle cx="1411.55" cy="0.5" r="0.5" fill="#525C69"/>
<circle cx="1415.11" cy="0.5" r="0.5" fill="#525C69"/>
<circle cx="1418.67" cy="0.5" r="0.5" fill="#525C69"/>
<circle cx="1422.23" cy="0.5" r="0.5" fill="#525C69"/>
</svg>
